<svg width="40" height="40" viewBox="0 0 40 40" fill="none" xmlns="http://www.w3.org/2000/svg">
<path d="M12.8355 30.7412C18.6702 30.7412 23.4002 26.0112 23.4002 20.1765C23.4002 14.3418 18.6702 9.61182 12.8355 9.61182C7.00073 9.61182 2.27075 14.3418 2.27075 20.1765C2.27075 26.0112 7.00073 30.7412 12.8355 30.7412Z" fill="#327A3B"/>
<path d="M12.8355 30.0117C18.6702 30.0117 23.4002 25.2818 23.4002 19.447C23.4002 13.6123 18.6702 8.88232 12.8355 8.88232C7.00073 8.88232 2.27075 13.6123 2.27075 19.447C2.27075 25.2818 7.00073 30.0117 12.8355 30.0117Z" fill="white" stroke="#707070" stroke-width="0.25" stroke-miterlimit="10"/>
<path d="M4.44678 13.0352L21.235 25.8352" stroke="#707070" stroke-width="0.5" stroke-miterlimit="10"/>
<path d="M27.1646 31.1294C32.9993 31.1294 37.7293 26.3994 37.7293 20.5647C37.7293 14.73 32.9993 10 27.1646 10C21.3298 10 16.5999 14.73 16.5999 20.5647C16.5999 26.3994 21.3298 31.1294 27.1646 31.1294Z" fill="#327A3B"/>
<path d="M27.1646 30.565C32.9993 30.565 37.7293 25.835 37.7293 20.0003C37.7293 14.1655 32.9993 9.43555 27.1646 9.43555C21.3298 9.43555 16.5999 14.1655 16.5999 20.0003C16.5999 25.835 21.3298 30.565 27.1646 30.565Z" fill="white" stroke="#707070" stroke-width="0.25" stroke-miterlimit="10"/>
<path d="M27.1646 9.44727V30.5531" stroke="#707070" stroke-width="0.5" stroke-miterlimit="10"/>
</svg>
